<?xml version="1.0" standalone="no"?>
<!DOCTYPE svg PUBLIC "-//W3C//DTD SVG 20010904//EN"
 "http://www.w3.org/TR/2001/REC-SVG-20010904/DTD/svg10.dtd">
<svg version="1.0" xmlns="http://www.w3.org/2000/svg"
 width="150.000000pt" height="106.000000pt" viewBox="0 0 150.000000 106.000000"
 preserveAspectRatio="xMidYMid meet">

<g transform="translate(0.000000,106.000000) scale(0.100000,-0.100000)"
fill="#000000" stroke="none">
<path d="M353 977 c-17 -7 -103 -59 -192 -117 -172 -113 -182 -126 -135 -166
14 -13 58 -53 98 -91 434 -411 602 -563 621 -563 8 0 40 24 72 53 65 58 149
133 357 315 181 159 316 290 316 307 0 15 -74 76 -222 183 -117 84 -84 79
-563 86 -228 3 -329 1 -352 -7z m135 -50 l21 -23 -105 -52 c-59 -29 -108 -52
-109 -50 -2 2 14 36 36 76 l41 72 47 0 c37 0 52 -5 69 -23z m87 13 c-3 -5 -12
-10 -20 -10 -8 0 -17 5 -20 10 -4 6 5 10 20 10 15 0 24 -4 20 -10z m298 -22
c26 -12 47 -25 47 -28 0 -9 -155 -130 -166 -130 -6 0 -85 64 -143 117 l-25 22
54 25 c45 21 64 24 119 20 36 -3 87 -15 114 -26z m102 12 c-3 -5 -12 -10 -20
-10 -8 0 -17 5 -20 10 -4 6 5 10 20 10 15 0 24 -4 20 -10z m200 -61 c20 -39
35 -72 33 -75 -7 -6 -198 96 -198 106 0 19 46 40 86 40 41 0 42 0 79 -71z
m-877 24 c-16 -37 -75 -133 -83 -137 -6 -2 -37 -1 -69 3 l-59 6 99 67 c94 64
120 77 112 61z m1045 -97 l69 -51 -52 -3 c-29 -2 -59 -1 -66 2 -12 5 -74 115
-74 132 0 8 40 -18 123 -80z m-714 13 c34 -28 61 -53 61 -55 0 -2 -38 -4 -85
-4 -60 0 -85 4 -85 12 0 20 32 98 40 98 5 0 36 -23 69 -51z m-129 32 c0 -15
-23 -76 -31 -81 -4 -3 -40 -3 -80 -1 l-74 3 85 44 c90 45 100 49 100 35z m474
-38 c9 -25 14 -48 12 -50 -2 -2 -41 -3 -86 -1 l-82 3 58 47 c33 25 64 47 71
47 6 1 18 -20 27 -46z m126 -3 c44 -22 80 -45 80 -51 0 -6 -27 -9 -72 -7 l-72
3 -18 48 c-10 26 -13 47 -8 47 6 0 46 -18 90 -40z m-791 -236 c51 -86 91 -157
89 -159 -2 -2 -37 29 -78 68 -170 160 -250 238 -250 242 0 3 33 5 74 5 l73 0
92 -156z m157 148 c12 -7 139 -341 133 -347 -7 -5 -317 340 -312 348 5 9 164
9 179 -1z m261 -24 c-3 -13 -18 -94 -33 -180 -16 -87 -31 -158 -35 -158 -3 0
-33 73 -67 163 -33 89 -63 170 -67 180 -7 16 2 17 100 17 106 0 107 0 102 -22z
m253 10 c0 -24 -134 -348 -141 -341 -5 6 -59 321 -59 346 0 4 45 7 100 7 73 0
100 -3 100 -12z m234 -2 c4 -1 -63 -76 -150 -167 -88 -91 -160 -162 -162 -159
-4 10 119 324 130 331 8 5 158 1 182 -5z m206 -5 c0 -15 -309 -295 -317 -287
-2 2 25 48 60 102 35 55 76 120 91 147 l28 47 69 0 c38 0 69 -4 69 -9z m-635
-275 l25 -159 -27 -68 c-16 -38 -31 -69 -35 -69 -3 0 -18 31 -33 69 l-28 70
28 153 c28 155 36 190 42 172 1 -5 14 -81 28 -168z m-272 -25 c101 -110 142
-162 157 -200 24 -62 21 -60 -78 28 -56 51 -87 90 -134 171 -34 58 -68 115
-76 128 -8 12 -12 22 -10 22 3 0 66 -67 141 -149z m535 12 c-65 -102 -97 -142
-160 -196 -43 -38 -78 -64 -78 -59 0 41 54 118 159 226 64 67 123 129 131 138
8 10 18 17 22 18 4 0 -29 -57 -74 -127z"/>
</g>
</svg>
